<svg width="25" height="26" viewBox="0 0 25 26" fill="none" xmlns="http://www.w3.org/2000/svg">
<g clip-path="url(#clip0_117_32)">
<path d="M9.37498 20.2916C4.16665 21.8541 4.16665 17.6874 2.08331 17.1666M16.6666 23.4166V19.3853C16.7057 18.8886 16.6386 18.3893 16.4698 17.9205C16.301 17.4518 16.0343 17.0243 15.6875 16.6666C18.9583 16.302 22.3958 15.0624 22.3958 9.37491C22.3955 7.92057 21.8361 6.522 20.8333 5.46866C21.3082 4.19628 21.2746 2.78986 20.7396 1.54158C20.7396 1.54158 19.5104 1.177 16.6666 3.08325C14.2792 2.43619 11.7625 2.43619 9.37498 3.08325C6.53123 1.177 5.30206 1.54158 5.30206 1.54158C4.76704 2.78986 4.73346 4.19628 5.20831 5.46866C4.19803 6.52981 3.63802 7.94102 3.64581 9.40616C3.64581 15.052 7.08331 16.2916 10.3541 16.6978C10.0114 17.052 9.74713 17.4743 9.57843 17.9373C9.40972 18.4004 9.3404 18.8937 9.37498 19.3853V23.4166" stroke="currentColor" stroke-width="2" stroke-linecap="round" stroke-linejoin="round"/>
</g>
<defs>
<clipPath id="clip0_117_32">
<rect width="25" height="25" fill="white" transform="translate(0 0.5)"/>
</clipPath>
</defs>
</svg>
