<svg width="25" height="26" viewBox="0 0 25 26" fill="none" xmlns="http://www.w3.org/2000/svg">
<path d="M16.6666 8.83325C18.3242 8.83325 19.914 9.49173 21.0861 10.6638C22.2582 11.8359 22.9166 13.4256 22.9166 15.0833V22.3749H18.75V15.0833C18.75 14.5307 18.5305 14.0008 18.1398 13.6101C17.7491 13.2194 17.2192 12.9999 16.6666 12.9999C16.1141 12.9999 15.5842 13.2194 15.1935 13.6101C14.8028 14.0008 14.5833 14.5307 14.5833 15.0833V22.3749H10.4166V15.0833C10.4166 13.4256 11.0751 11.8359 12.2472 10.6638C13.4193 9.49173 15.009 8.83325 16.6666 8.83325Z" stroke="currentColor" stroke-width="2" stroke-linecap="round" stroke-linejoin="round"/>
<path d="M6.24998 9.87492H2.08331V22.3749H6.24998V9.87492Z" stroke="currentColor" stroke-width="2" stroke-linecap="round" stroke-linejoin="round"/>
<path d="M4.16665 6.74992C5.31724 6.74992 6.24998 5.81718 6.24998 4.66659C6.24998 3.51599 5.31724 2.58325 4.16665 2.58325C3.01605 2.58325 2.08331 3.51599 2.08331 4.66659C2.08331 5.81718 3.01605 6.74992 4.16665 6.74992Z" stroke="currentColor" stroke-width="2" stroke-linecap="round" stroke-linejoin="round"/>
</svg>
