<svg width="512" height="512" viewBox="0 0 512 512" fill="none" xmlns="http://www.w3.org/2000/svg">
<path d="M134.998 442.539C125.44 452.437 114.176 460.117 101.206 465.579C88.2349 471.04 74.4109 473.941 59.7336 474.283V453.803C72.0216 453.12 83.2856 450.389 93.5256 445.611C104.107 441.173 113.152 434.517 120.662 425.643C128.171 417.451 133.974 407.381 138.07 395.435C142.507 383.147 144.726 369.152 144.726 353.451V62.6348H59.7336V42.6667H165.718V354.987C165.718 374.101 162.987 390.827 157.526 405.163C152.064 419.84 144.555 432.299 134.998 442.539Z" fill="#1A438E"/>
<path d="M456.71 401.067H201.734V381.099H237.062V62.6348H201.734V42.6667H300.55V62.6348H258.054V381.099H436.742V322.219H456.71V401.067Z" fill="#1A438E"/>
</svg>
